{"accessors" : [{"bufferView" : 0, "byteOffset" : 0, "componentType" : 5123, "count" : 45744, "type" : "SCALAR", "max" : [38410], "min" : [0]}, {"bufferView" : 1, "byteOffset" : 0, "componentType" : 5126, "count" : 38411, "type" : "VEC3", "max" : [125.58067321777344, 249.1222686767578, 30.990934371948242], "min" : [-125.58067321777344, -0.054586999118328094, -31.73540687561035], "name" : "POSITION"}, {"bufferView" : 1, "byteOffset" : 12, "componentType" : 5126, "count" : 38411, "type" : "VEC2", "max" : [1.9916160106658936, 0.9872450232505798], "min" : [0.015654999762773514, 0.007625997066497803], "name" : "TEXCOORD_0"}], "asset" : {"generator" : "Aspose.3D 23.11.1", "version" : "2.0"}, "buffers" : [{"uri" : "data:application/octet-stream;base64,", "byteLength" : 1006376}], "bufferViews" : [{"buffer" : 0, "byteOffset" : 0, "byteLength" : 91488, "target" : 34963}, {"buffer" : 0, "byteOffset" : 91492, "byteLength" : 914880, "byteStride" : 20, "target" : 34962}], "meshes" : [{"primitives" : [{"attributes" : {"POSITION" : 1, "TEXCOORD_0" : 2}, "indices" : 0, "mode" : 4}], "name" : ""}], "nodes" : [{"mesh" : 0, "name" : ""}], "scene" : 0, "scenes" : [{"nodes" : [0]}]}